<svg width="591" height="50" viewBox="0 0 591 50" fill="none" xmlns="http://www.w3.org/2000/svg">
<path d="M22.6034 0.0735536C23.1144 0.0345536 23.9819 -0.00944435 24.4654 0.111556C24.9164 0.224977 25.3245 0.467352 25.6399 0.80905C26.0829 1.29155 26.4801 1.8193 26.8759 2.3408C29.5359 5.84505 32.0314 9.47081 34.6161 13.0298C37.3169 16.7007 39.9889 20.3926 42.6319 24.1053C44.0882 26.1331 46.0506 28.7188 47.2564 30.8626C47.3974 36.0778 43.6186 35.4923 39.7961 35.4828L32.2094 35.4588C30.8439 35.4548 28.9877 35.3983 27.6742 35.5383L27.4972 35.5583C27.4039 37.5023 27.4876 40.1368 27.4891 42.1346C29.3809 41.9993 33.4817 42.1541 35.5222 42.1606L55.1967 42.1141C57.9214 42.0923 61.4582 42.2508 64.1007 42.0413C63.6603 41.7908 63.2218 41.5369 62.7854 41.2796C57.6119 38.2221 53.8566 33.6061 52.3804 27.7263C51.6589 24.8158 51.523 21.791 51.9806 18.8275C52.4383 15.864 53.4803 13.0211 55.0461 10.4638C56.5447 7.99008 58.5238 5.84175 60.8665 4.14574C63.2093 2.44974 65.8682 1.24044 68.6861 0.589301C74.4917 -0.740119 80.5867 0.237934 85.6849 3.31705C92.0049 7.2163 94.6369 12.0873 96.2757 19.0543C96.9017 16.2136 97.8962 13.0618 99.4572 10.5808C108.967 -4.53545 131.271 -3.24295 138.988 13.1006C143.254 22.4738 140.188 33.8021 131.955 39.9028C130.672 40.8533 129.082 41.5963 127.649 42.3046C131.888 42.3166 136.232 42.2161 140.46 42.3128C140.405 44.763 140.385 47.2134 140.4 49.6641C135.652 49.8633 129.584 49.6881 124.712 49.6886L93.9077 49.6873L0.3779 49.6823L0.396149 42.2033C6.97465 42.15 13.5532 42.1481 20.1319 42.1976L20.1186 35.4921C15.3094 35.5226 10.4994 35.3848 5.68765 35.5206C3.4019 35.5848 1.25515 35.729 0.220898 33.2558C-0.760352 30.9095 1.76865 28.2671 3.0799 26.3818L9.16265 17.7211L17.0297 6.5403C18.3669 4.6513 19.7367 2.64205 21.1954 0.842551C21.4857 0.484301 22.1591 0.252304 22.6034 0.0735536ZM85.2597 31.5658C86.9059 29.4821 87.6664 28.0338 88.3482 25.4713C83.2322 25.4323 77.5879 25.3356 72.4991 25.4521L72.5507 18.1553C76.0483 18.1758 79.5459 18.175 83.0434 18.1528C84.2636 18.1503 87.1957 18.2316 88.3127 18.0973C86.0959 11.7661 80.1937 6.67655 73.2169 7.35105C68.6812 7.9823 65.0471 9.20506 62.1586 13.0038C59.7473 16.2041 58.694 20.2256 59.2267 24.1971C60.4244 32.8673 68.0306 37.8491 76.4184 36.5043C79.8654 35.9516 83.0389 34.2763 85.2597 31.5658ZM104.126 18.1866L121.016 18.1926C121.018 20.6486 121.073 23.3246 120.998 25.7631C119.34 25.7023 117.647 25.7748 115.982 25.7561C111.989 25.6837 107.995 25.6609 104.001 25.6876C104.805 28.1998 105.769 30.2883 107.676 32.1721C110.759 35.2748 114.262 36.8913 118.694 36.9033C120.647 36.9259 122.584 36.5568 124.392 35.8179C126.2 35.0789 127.841 33.9851 129.218 32.6011C130.618 31.2053 131.724 29.5437 132.472 27.714C133.22 25.8843 133.594 23.9235 133.573 21.9471C133.524 17.8753 132.013 14.5121 129.097 11.6708C126.528 9.16706 122.062 7.16605 118.442 7.2963C118.194 7.30463 117.947 7.32389 117.701 7.35406C110.793 8.37081 106.4 11.3833 104.126 18.1866ZM96.2009 25.3961C93.8989 33.8488 91.4251 38.2853 83.2444 42.3108C87.3854 42.1418 92.0122 42.246 96.2049 42.1868C100.475 42.2435 104.853 42.2093 109.1 42.298C102.918 38.7955 99.0474 35.3266 97.0092 28.1773C96.8439 27.5976 96.5289 25.7223 96.2009 25.3961ZM23.9441 28.1608C27.7996 28.1443 32.3252 28.2478 36.1017 28.1101C33.3776 24.1885 30.6005 20.3041 27.7712 16.4578C26.7322 15.022 24.4437 11.6508 23.3657 10.5283C21.1514 13.5586 18.9854 16.6673 16.8016 19.7238C14.8526 22.4521 12.7282 25.3358 10.8862 28.1363C15.2094 28.1013 19.6086 28.1656 23.9441 28.1608Z" fill="black"/>
<path d="M160.924 45.7593V10.9205H147.588V3.45928H182.25V10.9205H168.914V45.7593H160.924ZM182.271 45.7593V3.45928H200.131C200.542 3.45928 201.09 3.47886 201.776 3.51802C202.481 3.53761 203.107 3.59636 203.656 3.69428C206.182 4.08594 208.248 4.91823 209.854 6.19115C211.479 7.46407 212.674 9.0699 213.438 11.0086C214.201 12.9278 214.583 15.0722 214.583 17.4418C214.583 20.9864 213.702 24.0218 211.939 26.548C210.177 29.0547 207.416 30.6018 203.656 31.1893L200.131 31.4243H190.261V45.7593H182.271ZM206.123 45.7593L197.781 28.5455L206.006 26.9593L215.171 45.7593H206.123ZM190.261 23.963H199.778C200.189 23.963 200.64 23.9434 201.129 23.9043C201.619 23.8651 202.069 23.7868 202.481 23.6693C203.558 23.3755 204.39 22.8859 204.978 22.2005C205.565 21.4955 205.966 20.722 206.182 19.8799C206.417 19.0182 206.534 18.2055 206.534 17.4418C206.534 16.678 206.417 15.8751 206.182 15.033C205.966 14.1714 205.565 13.3978 204.978 12.7124C204.39 12.0074 203.558 11.508 202.481 11.2143C202.069 11.0968 201.619 11.0184 201.129 10.9793C200.64 10.9401 200.189 10.9205 199.778 10.9205H190.261V23.963ZM213.991 45.7593L226.916 3.45928H238.842L251.767 45.7593H243.542L232.027 8.45302H233.555L222.216 45.7593H213.991ZM221.746 36.9468V29.4855H244.071V36.9468H221.746ZM252.92 45.7593V3.45928H260.91V45.7593H252.92ZM265.016 45.7593V3.45928H273.124L291.513 31.6593V3.45928H299.62V45.7593H291.513L273.124 17.5593V45.7593H265.016ZM319.097 46.6405C315.963 46.6405 313.134 46.0922 310.607 44.9955C308.101 43.8793 306.035 42.293 304.409 40.2368C302.803 38.1609 301.785 35.6934 301.354 32.8343L309.697 31.6005C310.284 34.0289 311.498 35.8991 313.339 37.2112C315.18 38.5232 317.275 39.1793 319.625 39.1793C320.937 39.1793 322.21 38.9737 323.444 38.5624C324.678 38.1512 325.686 37.5441 326.47 36.7412C327.273 35.9382 327.674 34.9493 327.674 33.7743C327.674 33.3434 327.606 32.9322 327.469 32.5405C327.351 32.1293 327.145 31.7474 326.852 31.3949C326.558 31.0424 326.137 30.7095 325.589 30.3962C325.06 30.0828 324.384 29.7989 323.562 29.5443L312.575 26.313C311.753 26.078 310.793 25.7451 309.697 25.3143C308.62 24.8834 307.572 24.2666 306.554 23.4637C305.535 22.6607 304.683 21.6032 303.998 20.2912C303.332 18.9595 302.999 17.2851 302.999 15.268C302.999 12.4284 303.714 10.0687 305.144 8.18865C306.573 6.30865 308.482 4.90844 310.872 3.98803C313.261 3.06761 315.905 2.61719 318.803 2.63678C321.721 2.67594 324.325 3.17532 326.617 4.1349C328.908 5.09448 330.827 6.49469 332.374 8.33553C333.921 10.1568 335.037 12.3893 335.723 15.033L327.087 16.5018C326.773 15.1309 326.196 13.9755 325.354 13.0355C324.511 12.0955 323.503 11.3807 322.328 10.8912C321.172 10.4016 319.958 10.1372 318.685 10.098C317.432 10.0589 316.247 10.2351 315.131 10.6268C314.034 10.9989 313.134 11.5472 312.429 12.2718C311.743 12.9964 311.4 13.858 311.4 14.8568C311.4 15.7772 311.684 16.5312 312.252 17.1187C312.82 17.6866 313.535 18.1468 314.397 18.4993C315.258 18.8518 316.14 19.1455 317.04 19.3805L324.384 21.378C325.481 21.6718 326.695 22.0634 328.027 22.553C329.358 23.023 330.631 23.6889 331.845 24.5505C333.079 25.3926 334.088 26.5089 334.871 27.8993C335.674 29.2897 336.075 31.0522 336.075 33.1868C336.075 35.4584 335.596 37.4462 334.636 39.1499C333.696 40.8341 332.423 42.2343 330.817 43.3505C329.211 44.4472 327.39 45.2697 325.354 45.818C323.336 46.3664 321.251 46.6405 319.097 46.6405ZM354.705 45.7593V10.9205H341.368V3.45928H376.031V10.9205H362.695V45.7593H354.705ZM394.205 46.6405C389.975 46.6405 386.323 45.7201 383.248 43.8793C380.193 42.0384 377.834 39.4632 376.169 36.1537C374.524 32.8441 373.702 28.9959 373.702 24.6093C373.702 20.2226 374.524 16.3745 376.169 13.0649C377.834 9.75532 380.193 7.18011 383.248 5.33928C386.323 3.49844 389.975 2.57803 394.205 2.57803C398.435 2.57803 402.078 3.49844 405.133 5.33928C408.207 7.18011 410.567 9.75532 412.212 13.0649C413.877 16.3745 414.709 20.2226 414.709 24.6093C414.709 28.9959 413.877 32.8441 412.212 36.1537C410.567 39.4632 408.207 42.0384 405.133 43.8793C402.078 45.7201 398.435 46.6405 394.205 46.6405ZM394.205 39.1205C396.888 39.1597 399.121 38.582 400.903 37.3874C402.685 36.1928 404.017 34.4989 404.898 32.3055C405.799 30.1122 406.249 27.5468 406.249 24.6093C406.249 21.6718 405.799 19.1259 404.898 16.9718C404.017 14.8176 402.685 13.1432 400.903 11.9487C399.121 10.7541 396.888 10.1372 394.205 10.098C391.522 10.0589 389.29 10.6366 387.508 11.8311C385.726 13.0257 384.384 14.7197 383.483 16.913C382.602 19.1064 382.162 21.6718 382.162 24.6093C382.162 27.5468 382.602 30.0926 383.483 32.2468C384.384 34.4009 385.726 36.0753 387.508 37.2699C389.29 38.4645 391.522 39.0814 394.205 39.1205ZM440.56 46.6405C437.896 46.6405 435.36 46.1705 432.951 45.2305C430.543 44.2709 428.408 42.8609 426.548 41.0005C424.707 39.1401 423.248 36.8391 422.171 34.0974C421.113 31.3557 420.585 28.193 420.585 24.6093C420.585 19.9289 421.476 15.9534 423.258 12.683C425.059 9.39303 427.468 6.88636 430.484 5.16302C433.519 3.43969 436.878 2.57803 440.56 2.57803C446.004 2.57803 450.283 3.84115 453.396 6.3674C456.51 8.89365 458.596 12.4676 459.653 17.0893L451.487 18.2643C450.723 15.7968 449.47 13.8287 447.727 12.3599C446.004 10.8716 443.791 10.1176 441.088 10.098C438.405 10.0589 436.173 10.6366 434.391 11.8311C432.609 13.0257 431.267 14.7197 430.366 16.913C429.485 19.1064 429.045 21.6718 429.045 24.6093C429.045 27.5468 429.485 30.0926 430.366 32.2468C431.267 34.4009 432.609 36.0753 434.391 37.2699C436.173 38.4645 438.405 39.0814 441.088 39.1205C442.91 39.1597 444.555 38.8464 446.023 38.1805C447.512 37.5147 448.765 36.467 449.783 35.0374C450.802 33.6078 451.526 31.7768 451.957 29.5443H445.26V23.3755H460.476C460.515 23.6301 460.544 24.0805 460.564 24.7268C460.583 25.373 460.593 25.7451 460.593 25.843C460.593 29.8968 459.771 33.4903 458.126 36.6237C456.481 39.757 454.16 42.2147 451.164 43.9968C448.168 45.7593 444.633 46.6405 440.56 46.6405ZM461.781 45.7593V3.45928H479.641C480.052 3.45928 480.6 3.47886 481.286 3.51802C481.991 3.53761 482.617 3.59636 483.166 3.69428C485.692 4.08594 487.758 4.91823 489.364 6.19115C490.989 7.46407 492.184 9.0699 492.948 11.0086C493.711 12.9278 494.093 15.0722 494.093 17.4418C494.093 20.9864 493.212 24.0218 491.449 26.548C489.687 29.0547 486.926 30.6018 483.166 31.1893L479.641 31.4243H469.771V45.7593H461.781ZM485.633 45.7593L477.291 28.5455L485.516 26.9593L494.681 45.7593H485.633ZM469.771 23.963H479.288C479.699 23.963 480.15 23.9434 480.639 23.9043C481.129 23.8651 481.579 23.7868 481.991 23.6693C483.068 23.3755 483.9 22.8859 484.488 22.2005C485.075 21.4955 485.476 20.722 485.692 19.8799C485.927 19.0182 486.044 18.2055 486.044 17.4418C486.044 16.678 485.927 15.8751 485.692 15.033C485.476 14.1714 485.075 13.3978 484.488 12.7124C483.9 12.0074 483.068 11.508 481.991 11.2143C481.579 11.0968 481.129 11.0184 480.639 10.9793C480.15 10.9401 479.699 10.9205 479.288 10.9205H469.771V23.963ZM496.439 45.7593V3.45928H524.051V10.9205H504.429V19.968H520.526V27.4293H504.429V38.298H524.051V45.7593H496.439ZM526.392 45.7593V3.45928H554.004V10.9205H534.382V19.968H550.479V27.4293H534.382V38.298H554.004V45.7593H526.392ZM556.345 45.7593V3.45928H564.453L582.841 31.6593V3.45928H590.949V45.7593H582.841L564.453 17.5593V45.7593H556.345Z" fill="black"/>
</svg>
