<svg width="141" height="50" viewBox="0 0 141 50" fill="none" xmlns="http://www.w3.org/2000/svg">
<path d="M22.6034 0.0735536C23.1144 0.0345536 23.9819 -0.00944435 24.4654 0.111556C24.9164 0.224977 25.3245 0.467352 25.6399 0.80905C26.0829 1.29155 26.4801 1.8193 26.8759 2.3408C29.5359 5.84505 32.0314 9.47081 34.6161 13.0298C37.3169 16.7007 39.9889 20.3926 42.6319 24.1053C44.0882 26.1331 46.0506 28.7188 47.2564 30.8626C47.3974 36.0778 43.6186 35.4923 39.7961 35.4828L32.2094 35.4588C30.8439 35.4548 28.9877 35.3983 27.6742 35.5383L27.4972 35.5583C27.4039 37.5023 27.4876 40.1368 27.4891 42.1346C29.3809 41.9993 33.4817 42.1541 35.5222 42.1606L55.1967 42.1141C57.9214 42.0923 61.4582 42.2508 64.1007 42.0413C63.6603 41.7908 63.2218 41.5369 62.7854 41.2796C57.6119 38.2221 53.8566 33.6061 52.3804 27.7263C51.6589 24.8158 51.523 21.791 51.9806 18.8275C52.4383 15.864 53.4803 13.0211 55.0461 10.4638C56.5447 7.99008 58.5238 5.84175 60.8665 4.14574C63.2093 2.44974 65.8682 1.24044 68.6861 0.589301C74.4917 -0.740119 80.5867 0.237934 85.6849 3.31705C92.0049 7.2163 94.6369 12.0873 96.2757 19.0543C96.9017 16.2136 97.8962 13.0618 99.4572 10.5808C108.967 -4.53545 131.271 -3.24295 138.988 13.1006C143.254 22.4738 140.188 33.8021 131.955 39.9028C130.672 40.8533 129.082 41.5963 127.649 42.3046C131.888 42.3166 136.232 42.2161 140.46 42.3128C140.405 44.763 140.385 47.2134 140.4 49.6641C135.652 49.8633 129.584 49.6881 124.712 49.6886L93.9077 49.6873L0.3779 49.6823L0.396149 42.2033C6.97465 42.15 13.5532 42.1481 20.1319 42.1976L20.1186 35.4921C15.3094 35.5226 10.4994 35.3848 5.68765 35.5206C3.4019 35.5848 1.25515 35.729 0.220898 33.2558C-0.760352 30.9095 1.76865 28.2671 3.0799 26.3818L9.16265 17.7211L17.0297 6.5403C18.3669 4.6513 19.7367 2.64205 21.1954 0.842551C21.4857 0.484301 22.1591 0.252304 22.6034 0.0735536ZM85.2597 31.5658C86.9059 29.4821 87.6664 28.0338 88.3482 25.4713C83.2322 25.4323 77.5879 25.3356 72.4991 25.4521L72.5507 18.1553C76.0483 18.1758 79.5459 18.175 83.0434 18.1528C84.2636 18.1503 87.1957 18.2316 88.3127 18.0973C86.0959 11.7661 80.1937 6.67655 73.2169 7.35105C68.6812 7.9823 65.0471 9.20506 62.1586 13.0038C59.7473 16.2041 58.694 20.2256 59.2267 24.1971C60.4244 32.8673 68.0306 37.8491 76.4184 36.5043C79.8654 35.9516 83.0389 34.2763 85.2597 31.5658ZM104.126 18.1866L121.016 18.1926C121.018 20.6486 121.073 23.3246 120.998 25.7631C119.34 25.7023 117.647 25.7748 115.982 25.7561C111.989 25.6837 107.995 25.6609 104.001 25.6876C104.805 28.1998 105.769 30.2883 107.676 32.1721C110.759 35.2748 114.262 36.8913 118.694 36.9033C120.647 36.9259 122.584 36.5568 124.392 35.8179C126.2 35.0789 127.841 33.9851 129.218 32.6011C130.618 31.2053 131.724 29.5437 132.472 27.714C133.22 25.8843 133.594 23.9235 133.573 21.9471C133.524 17.8753 132.013 14.5121 129.097 11.6708C126.528 9.16706 122.062 7.16605 118.442 7.2963C118.194 7.30463 117.947 7.32389 117.701 7.35406C110.793 8.37081 106.4 11.3833 104.126 18.1866ZM96.2009 25.3961C93.8989 33.8488 91.4251 38.2853 83.2444 42.3108C87.3854 42.1418 92.0122 42.246 96.2049 42.1868C100.475 42.2435 104.853 42.2093 109.1 42.298C102.918 38.7955 99.0474 35.3266 97.0092 28.1773C96.8439 27.5976 96.5289 25.7223 96.2009 25.3961ZM23.9441 28.1608C27.7996 28.1443 32.3252 28.2478 36.1017 28.1101C33.3776 24.1885 30.6005 20.3041 27.7712 16.4578C26.7322 15.022 24.4437 11.6508 23.3657 10.5283C21.1514 13.5586 18.9854 16.6673 16.8016 19.7238C14.8526 22.4521 12.7282 25.3358 10.8862 28.1363C15.2094 28.1013 19.6086 28.1656 23.9441 28.1608Z" fill="black"/>
</svg>
