<svg width="48" height="50" viewBox="0 0 48 50" fill="none" xmlns="http://www.w3.org/2000/svg">
<path d="M22.6037 0.0409577C23.1146 0.001963 23.9825 -0.0419114 24.466 0.0790436C24.9167 0.192487 25.3245 0.434824 25.6398 0.776309C26.0655 1.23998 26.4497 1.74548 26.8302 2.24701L26.8761 2.30854C29.536 5.81262 32.0317 9.43819 34.6164 12.997C37.317 16.6678 39.989 20.3606 42.632 24.0732C44.0882 26.1009 46.0513 28.6864 47.257 30.83C47.3977 36.0447 43.6184 35.4596 39.796 35.4501L32.2091 35.4267C30.8437 35.4227 28.9873 35.3658 27.674 35.5058L27.4972 35.5253C27.404 37.4691 27.4879 40.104 27.4894 42.1015C29.3811 41.9663 33.4821 42.1214 35.5226 42.1279L47.257 42.1005L47.1427 49.6523L0.378074 49.6494L0.396628 42.1708C6.97492 42.1175 13.5535 42.1155 20.132 42.165L20.1183 35.4599C15.3093 35.4904 10.4991 35.3525 5.68764 35.4882C3.40222 35.5525 1.25513 35.6961 0.220847 33.2236C-0.760301 30.8776 1.76886 28.2348 3.08022 26.3496L9.16323 17.6884L17.0294 6.50775C18.3666 4.6189 19.7368 2.60891 21.1955 0.809512C21.4857 0.451493 22.1595 0.219649 22.6037 0.0409577ZM23.3664 10.4951C21.1522 13.5252 18.9856 16.634 16.8019 19.6904C14.8529 22.4186 12.7279 25.303 10.8859 28.1035C15.2091 28.0685 19.6091 28.1326 23.9445 28.1279C27.7998 28.1114 32.3253 28.2148 36.1017 28.0771C33.3777 24.1557 30.6009 20.271 27.7716 16.4247C26.7326 14.989 24.4444 11.6176 23.3664 10.4951Z" fill="#5EC26A"/>
</svg>
