<svg width="48" height="50" viewBox="0 0 48 50" fill="none" xmlns="http://www.w3.org/2000/svg">
<path d="M22.6036 0.0410156C23.1146 0.00202094 23.9825 -0.0418535 24.4659 0.0791016C24.9167 0.192545 25.3245 0.434882 25.6398 0.776367C26.0655 1.24004 26.4497 1.74554 26.8302 2.24707L26.8761 2.30859C29.5359 5.81267 32.0317 9.43825 34.6163 12.9971C37.317 16.6679 39.989 20.3606 42.632 24.0732C44.0882 26.1009 46.0513 28.6865 47.257 30.8301C47.3977 36.0447 43.6184 35.4597 39.796 35.4502L32.2091 35.4268C30.8437 35.4227 28.9872 35.3659 27.674 35.5059L27.4972 35.5254C27.404 37.4692 27.4879 40.104 27.4894 42.1016C29.3811 41.9663 33.4821 42.1214 35.5226 42.1279L47.257 42.1006L47.1427 49.6523L0.378052 49.6494L0.396606 42.1709C6.97489 42.1176 13.5535 42.1155 20.132 42.165L20.1183 35.46C15.3093 35.4904 10.4991 35.3525 5.68762 35.4883C3.4022 35.5525 1.2551 35.6961 0.220825 33.2236C-0.760323 30.8776 1.76883 28.2348 3.0802 26.3496L9.16321 17.6885L17.0294 6.50781C18.3666 4.61896 19.7368 2.60896 21.1954 0.80957C21.4857 0.451551 22.1595 0.219707 22.6036 0.0410156ZM23.3663 10.4951C21.1522 13.5252 18.9855 16.6341 16.8019 19.6904C14.8529 22.4186 12.7278 25.3031 10.8859 28.1035C15.209 28.0685 19.609 28.1327 23.9445 28.1279C27.7998 28.1114 32.3253 28.2149 36.1017 28.0771C33.3776 24.1557 30.6009 20.271 27.7716 16.4248C26.7326 14.989 24.4443 11.6177 23.3663 10.4951Z" fill="#2F6544"/>
</svg>
