<svg width="597" height="51" viewBox="0 0 597 51" fill="none" xmlns="http://www.w3.org/2000/svg">
<path d="M22.9784 0.71247C23.4894 0.67347 24.3569 0.629472 24.8404 0.750472C25.2914 0.863893 25.6995 1.10627 26.0149 1.44797C26.4579 1.93047 26.8551 2.45822 27.2509 2.97972C29.9109 6.48397 32.4064 10.1097 34.9911 13.6687C37.6919 17.3396 40.3639 21.0316 43.0069 24.7442C44.4632 26.772 46.4256 29.3577 47.6314 31.5015C47.7724 36.7167 43.9936 36.1312 40.1711 36.1217L32.5844 36.0977C31.2189 36.0937 29.3627 36.0372 28.0492 36.1772L27.8722 36.1972C27.7789 38.1412 27.8626 40.7757 27.8641 42.7735C29.7559 42.6382 33.8567 42.793 35.8972 42.7995L55.5717 42.753C58.2964 42.7312 61.8332 42.8897 64.4757 42.6802C64.0353 42.4297 63.5968 42.1758 63.1604 41.9185C57.9869 38.861 54.2316 34.245 52.7554 28.3652C52.0339 25.4547 51.898 22.4299 52.3556 19.4664C52.8133 16.5029 53.8553 13.66 55.4211 11.1027C56.9197 8.62899 58.8988 6.48067 61.2415 4.78466C63.5843 3.08865 66.2432 1.87936 69.0611 1.22822C74.8667 -0.101203 80.9617 0.87685 86.0599 3.95597C92.3799 7.85522 95.0119 12.7262 96.6507 19.6932C97.2766 16.8525 98.2712 13.7007 99.8322 11.2197C109.342 -3.89653 131.646 -2.60403 139.363 13.7395C143.629 23.1127 140.563 34.441 132.33 40.5417C131.047 41.4922 129.457 42.2352 128.024 42.9435C132.263 42.9555 136.607 42.855 140.835 42.9517C140.78 45.4019 140.76 47.8523 140.775 50.303C136.027 50.5022 129.959 50.327 125.087 50.3275L94.2827 50.3262L0.7529 50.3212L0.771149 42.8422C7.34965 42.7889 13.9282 42.787 20.5069 42.8365L20.4936 36.131C15.6844 36.1615 10.8744 36.0237 6.06265 36.1595C3.7769 36.2237 1.63015 36.368 0.595898 33.8947C-0.385352 31.5485 2.14365 28.906 3.4549 27.0207L9.53765 18.36L17.4047 7.17922C18.7419 5.29022 20.1117 3.28097 21.5704 1.48147C21.8607 1.12322 22.5341 0.89122 22.9784 0.71247ZM85.6347 32.2047C87.2809 30.121 88.0414 28.6727 88.7232 26.1102C83.6072 26.0712 77.9629 25.9745 72.8741 26.091L72.9257 18.7942C76.4233 18.8147 79.9209 18.8139 83.4184 18.7917C84.6386 18.7892 87.5707 18.8705 88.6877 18.7362C86.4709 12.405 80.5687 7.31547 73.5919 7.98997C69.0562 8.62122 65.4221 9.84397 62.5336 13.6427C60.1223 16.843 59.069 20.8645 59.6017 24.836C60.7994 33.5062 68.4056 38.488 76.7934 37.1432C80.2404 36.5905 83.4139 34.9152 85.6347 32.2047ZM104.501 18.8255L121.391 18.8315C121.393 21.2875 121.448 23.9635 121.373 26.402C119.715 26.3412 118.022 26.4137 116.357 26.395C112.364 26.3226 108.37 26.2998 104.376 26.3265C105.18 28.8387 106.144 30.9272 108.051 32.811C111.134 35.9137 114.637 37.5302 119.069 37.5422C121.022 37.5648 122.959 37.1958 124.767 36.4568C126.575 35.7178 128.216 34.624 129.593 33.24C130.993 31.8442 132.099 30.1826 132.847 28.3529C133.595 26.5232 133.969 24.5625 133.948 22.586C133.899 18.5142 132.388 15.151 129.472 12.3097C126.903 9.80597 122.437 7.80497 118.817 7.93522C118.569 7.94355 118.322 7.96281 118.076 7.99297C111.168 9.00972 106.775 12.0222 104.501 18.8255ZM96.5759 26.035C94.2739 34.4877 91.8001 38.9242 83.6194 42.9497C87.7604 42.7807 92.3872 42.885 96.5799 42.8257C100.85 42.8825 105.228 42.8482 109.475 42.937C103.293 39.4345 99.4224 35.9655 97.3842 28.8162C97.2189 28.2365 96.9039 26.3612 96.5759 26.035ZM24.3191 28.7997C28.1746 28.7832 32.7001 28.8867 36.4767 28.749C33.7526 24.8274 30.9755 20.943 28.1462 17.0967C27.1072 15.661 24.8186 12.2897 23.7407 11.1672C21.5264 14.1975 19.3604 17.3062 17.1766 20.3627C15.2276 23.091 13.1032 25.9747 11.2612 28.7752C15.5844 28.7402 19.9837 28.8045 24.3191 28.7997Z" fill="#2F6544"/>
<path d="M161.299 46.3982V11.5594H147.963V4.09819H182.625V11.5594H169.289V46.3982H161.299ZM182.646 46.3982V4.09819H200.506C200.917 4.09819 201.465 4.11777 202.151 4.15694C202.856 4.17653 203.482 4.23528 204.031 4.33319C206.557 4.72486 208.623 5.55715 210.229 6.83006C211.854 8.10298 213.049 9.70882 213.813 11.6476C214.576 13.5667 214.958 15.7111 214.958 18.0807C214.958 21.6253 214.077 24.6607 212.314 27.1869C210.552 29.6936 207.791 31.2407 204.031 31.8282L200.506 32.0632H190.636V46.3982H182.646ZM206.498 46.3982L198.156 29.1844L206.381 27.5982L215.546 46.3982H206.498ZM190.636 24.6019H200.153C200.564 24.6019 201.015 24.5824 201.504 24.5432C201.994 24.504 202.444 24.4257 202.856 24.3082C203.933 24.0144 204.765 23.5249 205.353 22.8394C205.94 22.1344 206.341 21.3609 206.557 20.5188C206.792 19.6571 206.909 18.8444 206.909 18.0807C206.909 17.3169 206.792 16.514 206.557 15.6719C206.341 14.8103 205.94 14.0367 205.353 13.3513C204.765 12.6463 203.933 12.1469 202.856 11.8532C202.444 11.7357 201.994 11.6574 201.504 11.6182C201.015 11.579 200.564 11.5594 200.153 11.5594H190.636V24.6019ZM214.366 46.3982L227.291 4.09819H239.217L252.142 46.3982H243.917L232.402 9.09194H233.93L222.591 46.3982H214.366ZM222.121 37.5857V30.1244H244.446V37.5857H222.121ZM253.295 46.3982V4.09819H261.285V46.3982H253.295ZM265.391 46.3982V4.09819H273.499L291.888 32.2982V4.09819H299.995V46.3982H291.888L273.499 18.1982V46.3982H265.391ZM319.472 47.2794C316.338 47.2794 313.509 46.7311 310.982 45.6344C308.476 44.5182 306.41 42.9319 304.784 40.8757C303.178 38.7999 302.16 36.3324 301.729 33.4732L310.072 32.2394C310.659 34.6678 311.873 36.538 313.714 37.8501C315.555 39.1622 317.65 39.8182 320 39.8182C321.312 39.8182 322.585 39.6126 323.819 39.2013C325.053 38.7901 326.061 38.183 326.845 37.3801C327.648 36.5772 328.049 35.5882 328.049 34.4132C328.049 33.9824 327.981 33.5711 327.844 33.1794C327.726 32.7682 327.52 32.3863 327.227 32.0338C326.933 31.6813 326.512 31.3484 325.964 31.0351C325.435 30.7217 324.759 30.4378 323.937 30.1832L312.95 26.9519C312.128 26.7169 311.168 26.384 310.072 25.9532C308.995 25.5224 307.947 24.9055 306.929 24.1026C305.91 23.2997 305.058 22.2422 304.373 20.9301C303.707 19.5984 303.374 17.924 303.374 15.9069C303.374 13.0674 304.089 10.7076 305.519 8.82757C306.948 6.94757 308.857 5.54736 311.247 4.62694C313.636 3.70652 316.28 3.25611 319.178 3.27569C322.096 3.31486 324.7 3.81423 326.992 4.77382C329.283 5.7334 331.202 7.13361 332.749 8.97444C334.296 10.7957 335.412 13.0282 336.098 15.6719L327.462 17.1407C327.148 15.7699 326.571 14.6144 325.729 13.6744C324.886 12.7344 323.878 12.0197 322.703 11.5301C321.547 11.0405 320.333 10.7761 319.06 10.7369C317.807 10.6978 316.622 10.874 315.506 11.2657C314.409 11.6378 313.509 12.1861 312.804 12.9107C312.118 13.6353 311.775 14.4969 311.775 15.4957C311.775 16.4161 312.059 17.1701 312.627 17.7576C313.195 18.3255 313.91 18.7857 314.772 19.1382C315.633 19.4907 316.515 19.7844 317.415 20.0194L324.759 22.0169C325.856 22.3107 327.07 22.7024 328.402 23.1919C329.733 23.6619 331.006 24.3278 332.22 25.1894C333.454 26.0315 334.463 27.1478 335.246 28.5382C336.049 29.9286 336.45 31.6911 336.45 33.8257C336.45 36.0974 335.971 38.0851 335.011 39.7888C334.071 41.473 332.798 42.8732 331.192 43.9894C329.586 45.0861 327.765 45.9086 325.729 46.4569C323.711 47.0053 321.626 47.2794 319.472 47.2794ZM355.08 46.3982V11.5594H341.743V4.09819H376.406V11.5594H363.07V46.3982H355.08ZM394.58 47.2794C390.35 47.2794 386.698 46.359 383.623 44.5182C380.568 42.6774 378.209 40.1022 376.544 36.7926C374.899 33.483 374.077 29.6349 374.077 25.2482C374.077 20.8615 374.899 17.0134 376.544 13.7038C378.209 10.3942 380.568 7.81902 383.623 5.97819C386.698 4.13736 390.35 3.21694 394.58 3.21694C398.81 3.21694 402.453 4.13736 405.508 5.97819C408.582 7.81902 410.942 10.3942 412.587 13.7038C414.252 17.0134 415.084 20.8615 415.084 25.2482C415.084 29.6349 414.252 33.483 412.587 36.7926C410.942 40.1022 408.582 42.6774 405.508 44.5182C402.453 46.359 398.81 47.2794 394.58 47.2794ZM394.58 39.7594C397.263 39.7986 399.496 39.2209 401.278 38.0263C403.06 36.8317 404.392 35.1378 405.273 32.9444C406.174 30.7511 406.624 28.1857 406.624 25.2482C406.624 22.3107 406.174 19.7649 405.273 17.6107C404.392 15.4565 403.06 13.7822 401.278 12.5876C399.496 11.393 397.263 10.7761 394.58 10.7369C391.897 10.6978 389.665 11.2755 387.883 12.4701C386.101 13.6646 384.759 15.3586 383.858 17.5519C382.977 19.7453 382.537 22.3107 382.537 25.2482C382.537 28.1857 382.977 30.7315 383.858 32.8857C384.759 35.0399 386.101 36.7142 387.883 37.9088C389.665 39.1034 391.897 39.7203 394.58 39.7594ZM440.935 47.2794C438.271 47.2794 435.735 46.8094 433.326 45.8694C430.918 44.9099 428.783 43.4999 426.923 41.6394C425.082 39.779 423.623 37.478 422.546 34.7363C421.488 31.9947 420.96 28.8319 420.96 25.2482C420.96 20.5678 421.851 16.5924 423.633 13.3219C425.434 10.0319 427.843 7.52528 430.859 5.80194C433.894 4.07861 437.253 3.21694 440.935 3.21694C446.379 3.21694 450.658 4.48007 453.771 7.00632C456.885 9.53257 458.971 13.1065 460.028 17.7282L451.862 18.9032C451.098 16.4357 449.845 14.4676 448.102 12.9988C446.379 11.5105 444.166 10.7565 441.463 10.7369C438.78 10.6978 436.548 11.2755 434.766 12.4701C432.984 13.6646 431.642 15.3586 430.741 17.5519C429.86 19.7453 429.42 22.3107 429.42 25.2482C429.42 28.1857 429.86 30.7315 430.741 32.8857C431.642 35.0399 432.984 36.7142 434.766 37.9088C436.548 39.1034 438.78 39.7203 441.463 39.7594C443.285 39.7986 444.93 39.4853 446.398 38.8194C447.887 38.1536 449.14 37.1059 450.158 35.6763C451.177 34.2467 451.901 32.4157 452.332 30.1832H445.635V24.0144H460.851C460.89 24.269 460.919 24.7194 460.939 25.3657C460.958 26.0119 460.968 26.384 460.968 26.4819C460.968 30.5357 460.146 34.1292 458.501 37.2626C456.856 40.3959 454.535 42.8536 451.539 44.6357C448.543 46.3982 445.008 47.2794 440.935 47.2794ZM462.156 46.3982V4.09819H480.016C480.427 4.09819 480.975 4.11777 481.661 4.15694C482.366 4.17653 482.992 4.23528 483.541 4.33319C486.067 4.72486 488.133 5.55715 489.739 6.83006C491.364 8.10298 492.559 9.70882 493.323 11.6476C494.086 13.5667 494.468 15.7111 494.468 18.0807C494.468 21.6253 493.587 24.6607 491.824 27.1869C490.062 29.6936 487.301 31.2407 483.541 31.8282L480.016 32.0632H470.146V46.3982H462.156ZM486.008 46.3982L477.666 29.1844L485.891 27.5982L495.056 46.3982H486.008ZM470.146 24.6019H479.663C480.074 24.6019 480.525 24.5824 481.014 24.5432C481.504 24.504 481.954 24.4257 482.366 24.3082C483.443 24.0144 484.275 23.5249 484.863 22.8394C485.45 22.1344 485.851 21.3609 486.067 20.5188C486.302 19.6571 486.419 18.8444 486.419 18.0807C486.419 17.3169 486.302 16.514 486.067 15.6719C485.851 14.8103 485.45 14.0367 484.863 13.3513C484.275 12.6463 483.443 12.1469 482.366 11.8532C481.954 11.7357 481.504 11.6574 481.014 11.6182C480.525 11.579 480.074 11.5594 479.663 11.5594H470.146V24.6019ZM496.814 46.3982V4.09819H524.426V11.5594H504.804V20.6069H520.901V28.0682H504.804V38.9369H524.426V46.3982H496.814ZM526.767 46.3982V4.09819H554.379V11.5594H534.757V20.6069H550.854V28.0682H534.757V38.9369H554.379V46.3982H526.767ZM556.72 46.3982V4.09819H564.828L583.216 32.2982V4.09819H591.324V46.3982H583.216L564.828 18.1982V46.3982H556.72Z" fill="#2F6544"/>
</svg>
